# xmcd
# Track frame offsets:
# 150
# 18052
# 38824
# 55035
# 75194
# 94910
# 112927
# 130362
# 149112
# 165346
# 186708
# 206310
# 224312
# 241520
# 259949
# 281591
# 302045
# 318738
# 335613
#
# Disc length: 4674 seconds
# Revision: 0
# Processed by: cddbd v1.4PL0 Copyright (c) Steve Scherf et al.
# Submitted via: VisiTrax 2.9.2.167 - For more info visit www.synapsa.com
#
DISCID=0c124013
DTITLE=Michael Learns to Rock - 19 Love Songs
DYEAR=1900
DGENRE=
TTITLE0=The Ghost Of You
TTITLE1=The Actor
TTITLE2=Sleeping Child
TTITLE3=Complicated Heart
TTITLE4=25 Minutes
TTITLE5=Out Of The Blue
TTITLE6=I Wanna Dance
TTITLE7=That's Why (You Go Away)
TTITLE8=Love Will Never Lie
TTITLE9=How Many Hours
TTITLE10=I'm Gonna Be Around
TTITLE11=Nothing to lose
TTITLE12=Paint My love
TTITLE13=Breaking My Heart
TTITLE14=Strange Foreign Beauty
TTITLE15=You Took My Heart Away
TTITLE16=Blue Night
TTITLE17=More Than A Friend
TTITLE18=Forever And A Day
EXTD=
EXTT0=
EXTT1=
EXTT2=
EXTT3=
EXTT4=
EXTT5=
EXTT6=
EXTT7=
EXTT8=
EXTT9=
EXTT10=
EXTT11=
EXTT12=
EXTT13=
EXTT14=
EXTT15=
EXTT16=
EXTT17=
EXTT18=
PLAYORDER=
